<svg xmlns="http://www.w3.org/2000/svg" width="180" height="44" fill="none"><path fill="#ECF1F0" d="M56.517 30V12.546h3.69v14.411h7.483V30H56.517Zm23.546 0v2.753H68.6V30h11.463Zm7.149.384c-1.466-.006-2.728-.367-3.784-1.083-1.052-.716-1.861-1.753-2.43-3.11-.562-1.359-.84-2.992-.835-4.901 0-1.904.282-3.526.844-4.867.568-1.34 1.378-2.36 2.43-3.06 1.056-.704 2.314-1.056 3.775-1.056 1.46 0 2.716.352 3.767 1.057 1.056.704 1.869 1.727 2.437 3.068.568 1.335.85 2.954.844 4.858 0 1.915-.284 3.55-.852 4.909-.563 1.358-1.37 2.395-2.42 3.11-1.052.717-2.31 1.075-3.776 1.075Zm0-3.06c1 0 1.798-.503 2.394-1.509.597-1.005.893-2.514.887-4.525 0-1.324-.136-2.426-.41-3.307-.266-.88-.647-1.543-1.141-1.986a2.49 2.49 0 0 0-1.73-.665c-.995 0-1.79.497-2.387 1.492-.596.994-.897 2.483-.903 4.466 0 1.34.133 2.46.4 3.358.273.892.657 1.562 1.151 2.011a2.521 2.521 0 0 0 1.739.665Zm15.611 7.858c-1.176 0-2.185-.162-3.025-.486-.836-.318-1.5-.753-1.995-1.304a4.008 4.008 0 0 1-.963-1.858l3.358-.452c.102.262.264.506.486.733.222.228.514.41.878.546.369.142.818.213 1.346.213.79 0 1.441-.193 1.952-.58.517-.38.776-1.02.776-1.917v-2.395h-.154a3.434 3.434 0 0 1-.716 1.031c-.318.324-.727.588-1.227.793-.5.204-1.097.306-1.79.306-.983 0-1.878-.227-2.684-.681-.802-.46-1.44-1.162-1.918-2.105-.472-.95-.707-2.148-.707-3.597 0-1.483.241-2.722.724-3.716.483-.994 1.125-1.739 1.926-2.233a4.98 4.98 0 0 1 2.651-.741c.733 0 1.346.125 1.841.375.494.244.892.55 1.193.92.307.364.542.722.707 1.074h.137v-2.199h3.605v13.219c0 1.113-.273 2.045-.818 2.795-.546.75-1.302 1.313-2.268 1.688-.96.38-2.065.57-3.315.57Zm.077-8.097c.585 0 1.079-.145 1.483-.434.409-.296.721-.716.937-1.262.222-.55.333-1.21.333-1.977 0-.767-.108-1.432-.324-1.994-.216-.569-.529-1.009-.938-1.321-.409-.313-.906-.47-1.491-.47-.597 0-1.1.163-1.509.487-.409.318-.718.761-.929 1.33-.21.567-.315 1.224-.315 1.968 0 .756.105 1.409.315 1.96.216.546.526.969.929 1.27.409.296.912.443 1.509.443Zm12.946 3.162c-.835 0-1.58-.145-2.233-.434a3.593 3.593 0 0 1-1.551-1.304c-.375-.58-.563-1.302-.563-2.165 0-.728.134-1.338.401-1.833a3.244 3.244 0 0 1 1.091-1.193c.46-.301.983-.528 1.568-.682.591-.153 1.21-.261 1.858-.323.761-.08 1.375-.154 1.841-.222.466-.074.804-.182 1.014-.324.21-.142.315-.352.315-.63v-.052c0-.54-.17-.957-.511-1.253-.335-.295-.813-.443-1.432-.443-.653 0-1.173.145-1.559.435a1.998 1.998 0 0 0-.768 1.074l-3.357-.273a4.557 4.557 0 0 1 1.005-2.063c.5-.585 1.145-1.034 1.935-1.346.795-.318 1.716-.477 2.761-.477.727 0 1.424.085 2.088.255.671.17 1.264.435 1.782.793.522.358.934.818 1.235 1.38.301.557.452 1.225.452 2.003V30h-3.443v-1.815h-.102c-.211.409-.492.77-.844 1.082a3.906 3.906 0 0 1-1.27.724c-.494.17-1.065.256-1.713.256Zm1.04-2.506c.534 0 1.005-.105 1.414-.315.41-.216.731-.505.963-.87.233-.363.35-.775.35-1.235v-1.39a1.95 1.95 0 0 1-.469.205 8.55 8.55 0 0 1-.656.162c-.244.046-.489.088-.733.128l-.665.094a4.485 4.485 0 0 0-1.116.298 1.787 1.787 0 0 0-.742.554c-.176.227-.264.512-.264.852 0 .495.179.873.537 1.134.364.256.824.383 1.381.383Zm12.779-5.31V30h-3.63V16.91h3.46v2.309h.153a3.654 3.654 0 0 1 1.458-1.807c.682-.449 1.508-.673 2.48-.673.909 0 1.702.198 2.378.596.676.398 1.201.966 1.576 1.705.375.733.563 1.608.563 2.625V30h-3.631v-7.688c.006-.8-.199-1.426-.613-1.875-.415-.454-.986-.681-1.713-.681-.489 0-.921.105-1.296.315-.369.21-.659.517-.869.92-.205.398-.31.878-.316 1.44Z"/><g fill="#ECF1F0" fill-rule="evenodd" clip-path="url(#a)" clip-rule="evenodd"><path d="m0 21.02 1.552 1.99 4.07 5.218V12.782H0v8.238Z"/><path d="M0 9.061h5.622v-3.05h5.62v29.424L17.924 44V0H0v9.061ZM21.077 0v44l6.68-8.566V6.01h5.621v3.051H39V0H21.077Z"/><path d="m33.378 28.228 4.07-5.217L39 21.02v-8.239h-5.622v15.446Z"/></g><defs><clipPath id="a"><path fill="#fff" d="M0 0h39v44H0z"/></clipPath></defs></svg>